<mxfile host="app.diagrams.net" agent="Mozilla/5.0 (Windows NT 10.0; Win64; x64; rv:138.0) Gecko/20100101 Firefox/138.0" version="27.0.6">
  <diagram id="l8hXMBHkgcEJcSW0mbfh" name="Page-1">
    <mxGraphModel dx="1148" dy="537" grid="1" gridSize="10" guides="1" tooltips="1" connect="1" arrows="1" fold="1" page="1" pageScale="1" pageWidth="1169" pageHeight="827" math="0" shadow="0">
      <root>
        <mxCell id="0" />
        <mxCell id="1" parent="0" />
        <mxCell id="jClpwl0w-e8Gz5kQGs58-23" value="" style="rounded=0;whiteSpace=wrap;html=1;fillColor=#5FE9FF;" parent="1" vertex="1">
          <mxGeometry x="585" y="68" width="150" height="222" as="geometry" />
        </mxCell>
        <mxCell id="jClpwl0w-e8Gz5kQGs58-17" value="" style="rounded=0;whiteSpace=wrap;html=1;fillColor=#FFCC55;" parent="1" vertex="1">
          <mxGeometry x="410" y="69" width="150" height="481" as="geometry" />
        </mxCell>
        <mxCell id="jClpwl0w-e8Gz5kQGs58-1" value="R1&lt;div&gt;+ DHCP&lt;/div&gt;" style="shape=mxgraph.cisco.routers.router;sketch=0;html=1;pointerEvents=1;dashed=0;fillColor=#036897;strokeColor=#ffffff;strokeWidth=2;verticalLabelPosition=bottom;verticalAlign=top;align=center;outlineConnect=0;" parent="1" vertex="1">
          <mxGeometry x="620" y="396.5" width="78" height="53" as="geometry" />
        </mxCell>
        <mxCell id="jClpwl0w-e8Gz5kQGs58-3" value="Station Météo" style="shape=cube;whiteSpace=wrap;html=1;boundedLbl=1;backgroundOutline=1;darkOpacity=0.05;darkOpacity2=0.1;fillColor=#94FF88;" parent="1" vertex="1">
          <mxGeometry x="150" y="299" width="160" height="60" as="geometry" />
        </mxCell>
        <mxCell id="jClpwl0w-e8Gz5kQGs58-6" value="Capteurs Piste" style="shape=cube;whiteSpace=wrap;html=1;boundedLbl=1;backgroundOutline=1;darkOpacity=0.05;darkOpacity2=0.1;fillColor=#94FF88;" parent="1" vertex="1">
          <mxGeometry x="150" y="393" width="160" height="60" as="geometry" />
        </mxCell>
        <mxCell id="jClpwl0w-e8Gz5kQGs58-7" value="Pénétrometre" style="shape=cube;whiteSpace=wrap;html=1;boundedLbl=1;backgroundOutline=1;darkOpacity=0.05;darkOpacity2=0.1;fillColor=#94FF88;" parent="1" vertex="1">
          <mxGeometry x="150" y="489" width="160" height="60" as="geometry" />
        </mxCell>
        <mxCell id="jClpwl0w-e8Gz5kQGs58-9" value="Serveur Base De&lt;div&gt;Données&lt;div&gt;+ API&lt;/div&gt;&lt;/div&gt;" style="sketch=0;aspect=fixed;pointerEvents=1;shadow=0;dashed=0;html=1;strokeColor=none;labelPosition=center;verticalLabelPosition=bottom;verticalAlign=top;align=center;fillColor=#036897;shape=mxgraph.mscae.enterprise.database_server" parent="1" vertex="1">
          <mxGeometry x="633.2" y="140" width="60.8" height="80" as="geometry" />
        </mxCell>
        <mxCell id="jClpwl0w-e8Gz5kQGs58-10" value="ChirpStack" style="sketch=0;aspect=fixed;pointerEvents=1;shadow=0;dashed=0;html=1;strokeColor=none;labelPosition=center;verticalLabelPosition=bottom;verticalAlign=top;align=center;fillColor=#036897;shape=mxgraph.mscae.enterprise.server_generic" parent="1" vertex="1">
          <mxGeometry x="469.8" y="140" width="38.4" height="80" as="geometry" />
        </mxCell>
        <mxCell id="jClpwl0w-e8Gz5kQGs58-18" value="VLAN 20" style="text;html=1;align=center;verticalAlign=middle;whiteSpace=wrap;rounded=0;" parent="1" vertex="1">
          <mxGeometry x="419" y="70" width="60" height="30" as="geometry" />
        </mxCell>
        <mxCell id="jClpwl0w-e8Gz5kQGs58-19" value="&lt;span style=&quot;color: rgb(0, 0, 0); font-family: Helvetica; font-size: 12px; font-style: normal; font-variant-ligatures: normal; font-variant-caps: normal; font-weight: 400; letter-spacing: normal; text-align: center; text-indent: 0px; text-transform: none; word-spacing: 0px; -webkit-text-stroke-width: 0px; white-space: nowrap; background-color: rgb(236, 236, 236); text-decoration-thickness: initial; text-decoration-style: initial; text-decoration-color: initial; float: none; display: inline !important;&quot;&gt;192.168.20.x&lt;/span&gt;" style="text;whiteSpace=wrap;html=1;" parent="1" vertex="1">
          <mxGeometry x="454" y="120" width="70" height="20" as="geometry" />
        </mxCell>
        <mxCell id="jClpwl0w-e8Gz5kQGs58-21" style="edgeStyle=orthogonalEdgeStyle;rounded=0;orthogonalLoop=1;jettySize=auto;html=1;entryX=0.12;entryY=0.9;entryDx=0;entryDy=0;entryPerimeter=0;exitX=0.684;exitY=0.705;exitDx=0;exitDy=0;exitPerimeter=0;" parent="1" source="65gtNW7kWN9lhsbhyVcw-1" target="jClpwl0w-e8Gz5kQGs58-1" edge="1">
          <mxGeometry relative="1" as="geometry">
            <Array as="points">
              <mxPoint x="498" y="444" />
            </Array>
            <mxPoint x="528" y="444.0344827586207" as="sourcePoint" />
          </mxGeometry>
        </mxCell>
        <mxCell id="jClpwl0w-e8Gz5kQGs58-22" style="edgeStyle=orthogonalEdgeStyle;rounded=0;orthogonalLoop=1;jettySize=auto;html=1;entryX=0;entryY=0.5;entryDx=0;entryDy=0;entryPerimeter=0;" parent="1" source="jClpwl0w-e8Gz5kQGs58-10" target="jClpwl0w-e8Gz5kQGs58-1" edge="1">
          <mxGeometry relative="1" as="geometry">
            <mxPoint x="610" y="370" as="targetPoint" />
            <Array as="points">
              <mxPoint x="540" y="180" />
              <mxPoint x="540" y="423" />
            </Array>
          </mxGeometry>
        </mxCell>
        <mxCell id="jClpwl0w-e8Gz5kQGs58-24" value="VLAN 30" style="text;html=1;align=center;verticalAlign=middle;whiteSpace=wrap;rounded=0;" parent="1" vertex="1">
          <mxGeometry x="585" y="70" width="60" height="30" as="geometry" />
        </mxCell>
        <mxCell id="jClpwl0w-e8Gz5kQGs58-25" value="&lt;span style=&quot;color: rgb(0, 0, 0); font-family: Helvetica; font-size: 12px; font-style: normal; font-variant-ligatures: normal; font-variant-caps: normal; font-weight: 400; letter-spacing: normal; text-align: center; text-indent: 0px; text-transform: none; word-spacing: 0px; -webkit-text-stroke-width: 0px; white-space: nowrap; background-color: rgb(236, 236, 236); text-decoration-thickness: initial; text-decoration-style: initial; text-decoration-color: initial; float: none; display: inline !important;&quot;&gt;192.168.30.a&lt;/span&gt;" style="text;whiteSpace=wrap;html=1;" parent="1" vertex="1">
          <mxGeometry x="610" y="120" width="70" height="20" as="geometry" />
        </mxCell>
        <mxCell id="jClpwl0w-e8Gz5kQGs58-27" style="edgeStyle=orthogonalEdgeStyle;rounded=0;orthogonalLoop=1;jettySize=auto;html=1;entryX=0.5;entryY=0;entryDx=0;entryDy=0;entryPerimeter=0;" parent="1" source="jClpwl0w-e8Gz5kQGs58-9" target="jClpwl0w-e8Gz5kQGs58-1" edge="1">
          <mxGeometry relative="1" as="geometry">
            <Array as="points">
              <mxPoint x="660" y="308" />
              <mxPoint x="659" y="308" />
            </Array>
          </mxGeometry>
        </mxCell>
        <mxCell id="jClpwl0w-e8Gz5kQGs58-28" value="" style="rounded=0;whiteSpace=wrap;html=1;fillColor=#83FF83;" parent="1" vertex="1">
          <mxGeometry x="770" y="328" width="150" height="222" as="geometry" />
        </mxCell>
        <mxCell id="jClpwl0w-e8Gz5kQGs58-30" value="PC Régisseur&lt;div&gt;de piste&lt;/div&gt;" style="fontColor=#0066CC;verticalAlign=top;verticalLabelPosition=bottom;labelPosition=center;align=center;html=1;outlineConnect=0;fillColor=#CCCCCC;strokeColor=#6881B3;gradientColor=none;gradientDirection=north;strokeWidth=2;shape=mxgraph.networks.pc;" parent="1" vertex="1">
          <mxGeometry x="808.22" y="397.25" width="73.57" height="51.5" as="geometry" />
        </mxCell>
        <mxCell id="jClpwl0w-e8Gz5kQGs58-31" value="VLAN 10" style="text;html=1;align=center;verticalAlign=middle;whiteSpace=wrap;rounded=0;" parent="1" vertex="1">
          <mxGeometry x="770" y="329" width="60" height="30" as="geometry" />
        </mxCell>
        <mxCell id="jClpwl0w-e8Gz5kQGs58-32" value="&lt;span style=&quot;color: rgb(0, 0, 0); font-family: Helvetica; font-size: 12px; font-style: normal; font-variant-ligatures: normal; font-variant-caps: normal; font-weight: 400; letter-spacing: normal; text-align: center; text-indent: 0px; text-transform: none; word-spacing: 0px; -webkit-text-stroke-width: 0px; white-space: nowrap; background-color: rgb(236, 236, 236); text-decoration-thickness: initial; text-decoration-style: initial; text-decoration-color: initial; float: none; display: inline !important;&quot;&gt;192.168.10.z&lt;/span&gt;" style="text;whiteSpace=wrap;html=1;" parent="1" vertex="1">
          <mxGeometry x="811.79" y="364.5" width="70" height="20" as="geometry" />
        </mxCell>
        <mxCell id="jClpwl0w-e8Gz5kQGs58-33" style="edgeStyle=orthogonalEdgeStyle;rounded=0;orthogonalLoop=1;jettySize=auto;html=1;entryX=1;entryY=0.5;entryDx=0;entryDy=0;entryPerimeter=0;" parent="1" source="jClpwl0w-e8Gz5kQGs58-30" target="jClpwl0w-e8Gz5kQGs58-1" edge="1">
          <mxGeometry relative="1" as="geometry" />
        </mxCell>
        <mxCell id="uLp4zWKkthHn5dEOMuva-4" value="&lt;span style=&quot;color: rgb(0, 0, 0); font-family: Helvetica; font-style: normal; font-variant-ligatures: normal; font-variant-caps: normal; font-weight: 400; letter-spacing: normal; orphans: 2; text-align: center; text-indent: 0px; text-transform: none; widows: 2; word-spacing: 0px; -webkit-text-stroke-width: 0px; white-space: nowrap; background-color: rgb(236, 236, 236); text-decoration-thickness: initial; text-decoration-style: initial; text-decoration-color: initial; float: none; display: inline !important;&quot;&gt;&lt;font style=&quot;font-size: 10px;&quot;&gt;170.10.0.254&lt;/font&gt;&lt;/span&gt;" style="text;whiteSpace=wrap;html=1;" parent="1" vertex="1">
          <mxGeometry x="698" y="420" width="62" height="20" as="geometry" />
        </mxCell>
        <mxCell id="JfUw5AQRG4dN37I0dHWG-1" value="&lt;span style=&quot;color: rgb(0, 0, 0); font-family: Helvetica; font-style: normal; font-variant-ligatures: normal; font-variant-caps: normal; font-weight: 400; letter-spacing: normal; orphans: 2; text-align: center; text-indent: 0px; text-transform: none; widows: 2; word-spacing: 0px; -webkit-text-stroke-width: 0px; white-space: nowrap; background-color: rgb(236, 236, 236); text-decoration-thickness: initial; text-decoration-style: initial; text-decoration-color: initial; float: none; display: inline !important;&quot;&gt;&lt;font style=&quot;font-size: 10px;&quot;&gt;170.30.0.254&lt;/font&gt;&lt;/span&gt;" style="text;whiteSpace=wrap;html=1;" parent="1" vertex="1">
          <mxGeometry x="660" y="359" width="62" height="20" as="geometry" />
        </mxCell>
        <mxCell id="JfUw5AQRG4dN37I0dHWG-2" value="&lt;span style=&quot;color: rgb(0, 0, 0); font-family: Helvetica; font-style: normal; font-variant-ligatures: normal; font-variant-caps: normal; font-weight: 400; letter-spacing: normal; orphans: 2; text-align: center; text-indent: 0px; text-transform: none; widows: 2; word-spacing: 0px; -webkit-text-stroke-width: 0px; white-space: nowrap; background-color: rgb(236, 236, 236); text-decoration-thickness: initial; text-decoration-style: initial; text-decoration-color: initial; float: none; display: inline !important;&quot;&gt;&lt;font style=&quot;font-size: 10px;&quot;&gt;170.20.0.254&lt;/font&gt;&lt;/span&gt;" style="text;whiteSpace=wrap;html=1;" parent="1" vertex="1">
          <mxGeometry x="562" y="400" width="62" height="20" as="geometry" />
        </mxCell>
        <mxCell id="qB9bXmccMYQ1EBb5JTRB-1" value="&lt;span style=&quot;color: rgb(0, 0, 0); font-family: Helvetica; font-size: 12px; font-style: normal; font-variant-ligatures: normal; font-variant-caps: normal; font-weight: 400; letter-spacing: normal; text-align: center; text-indent: 0px; text-transform: none; word-spacing: 0px; -webkit-text-stroke-width: 0px; white-space: nowrap; background-color: rgb(236, 236, 236); text-decoration-thickness: initial; text-decoration-style: initial; text-decoration-color: initial; float: none; display: inline !important;&quot;&gt;192.168.20.y&lt;/span&gt;" style="text;whiteSpace=wrap;html=1;" parent="1" vertex="1">
          <mxGeometry x="454" y="500" width="70" height="20" as="geometry" />
        </mxCell>
        <mxCell id="65gtNW7kWN9lhsbhyVcw-1" value="LoraWAN&lt;br&gt;Gateway" style="sketch=0;aspect=fixed;pointerEvents=1;shadow=0;dashed=0;html=1;strokeColor=none;labelPosition=center;verticalLabelPosition=bottom;verticalAlign=top;align=center;fillColor=#00188D;shape=mxgraph.mscae.enterprise.gateway" parent="1" vertex="1">
          <mxGeometry x="464" y="405" width="50" height="50" as="geometry" />
        </mxCell>
        <mxCell id="65gtNW7kWN9lhsbhyVcw-3" style="edgeStyle=orthogonalEdgeStyle;rounded=0;orthogonalLoop=1;jettySize=auto;html=1;entryX=0;entryY=0.5;entryDx=0;entryDy=0;entryPerimeter=0;" parent="1" source="jClpwl0w-e8Gz5kQGs58-6" target="65gtNW7kWN9lhsbhyVcw-1" edge="1">
          <mxGeometry relative="1" as="geometry" />
        </mxCell>
        <mxCell id="65gtNW7kWN9lhsbhyVcw-4" style="edgeStyle=orthogonalEdgeStyle;rounded=0;orthogonalLoop=1;jettySize=auto;html=1;entryX=0;entryY=0.5;entryDx=0;entryDy=0;entryPerimeter=0;" parent="1" source="jClpwl0w-e8Gz5kQGs58-3" target="65gtNW7kWN9lhsbhyVcw-1" edge="1">
          <mxGeometry relative="1" as="geometry" />
        </mxCell>
        <mxCell id="65gtNW7kWN9lhsbhyVcw-5" style="edgeStyle=orthogonalEdgeStyle;rounded=0;orthogonalLoop=1;jettySize=auto;html=1;entryX=0;entryY=0.5;entryDx=0;entryDy=0;entryPerimeter=0;" parent="1" source="jClpwl0w-e8Gz5kQGs58-7" target="65gtNW7kWN9lhsbhyVcw-1" edge="1">
          <mxGeometry relative="1" as="geometry" />
        </mxCell>
        <mxCell id="65gtNW7kWN9lhsbhyVcw-6" value="Lora" style="edgeLabel;html=1;align=center;verticalAlign=middle;resizable=0;points=[];" parent="65gtNW7kWN9lhsbhyVcw-5" vertex="1" connectable="0">
          <mxGeometry x="0.4699" y="1" relative="1" as="geometry">
            <mxPoint as="offset" />
          </mxGeometry>
        </mxCell>
        <mxCell id="65gtNW7kWN9lhsbhyVcw-7" value="" style="image;aspect=fixed;perimeter=ellipsePerimeter;html=1;align=center;shadow=0;dashed=0;spacingTop=3;image=img/lib/active_directory/internet_cloud.svg;" parent="1" vertex="1">
          <mxGeometry x="635" y="518" width="50" height="31.5" as="geometry" />
        </mxCell>
        <mxCell id="65gtNW7kWN9lhsbhyVcw-8" style="edgeStyle=orthogonalEdgeStyle;rounded=0;orthogonalLoop=1;jettySize=auto;html=1;entryX=0.5;entryY=1;entryDx=0;entryDy=0;entryPerimeter=0;" parent="1" source="65gtNW7kWN9lhsbhyVcw-7" target="jClpwl0w-e8Gz5kQGs58-1" edge="1">
          <mxGeometry relative="1" as="geometry" />
        </mxCell>
      </root>
    </mxGraphModel>
  </diagram>
</mxfile>
